# xmcd
# 
# Track frame offsets:
#     150
#     17680
#     37157
#     57135
#     79472
#     98912
#     115900
#     132122
#     150045
#     171680
#     189095
# 
# Disc length: 2848
# 
# Revision: 5
# Processed by: cddbd v1.5.2PL0 Copyright (c) Steve Scherf et al.
# Submitted via: fre:ac v1.0.17
# 
DISCID=870b1e0b
DTITLE=Mariah Carey - Music Box
DYEAR=1993
DGENRE=Pop
TTITLE0=Dreamlover
TTITLE1=Hero
TTITLE2=Anytime You Need A Friend
TTITLE3=Music Box
TTITLE4=Now That I Know
TTITLE5=Never Forget You
TTITLE6=Without You
TTITLE7=Just To Hold You Once Again
TTITLE8=I've Been Thinking About You
TTITLE9=All I've Ever Wanted
TTITLE10=Everything Fades Away
EXTD=YEAR: 1993
EXTT0=
EXTT1=
EXTT2=
EXTT3=
EXTT4=
EXTT5=
EXTT6=
EXTT7=
EXTT8=
EXTT9=
EXTT10=
PLAYORDER=
